<svg width="80" height="80" viewBox="0 0 80 80" fill="none" xmlns="http://www.w3.org/2000/svg">
<rect x="0.5" y="0.5" width="79" height="79" rx="19.5" fill="black" style="fill:black;fill-opacity:1;"/>
<rect x="0.5" y="0.5" width="79" height="79" rx="19.5" stroke="url(#paint0_linear_125_242)" style=""/>
<g clip-path="url(#clip0_125_242)">
<mask id="mask0_125_242" style="mask-type:luminance" maskUnits="userSpaceOnUse" x="16" y="16" width="48" height="48">
<path d="M64 16H16V64H64V16Z" fill="white" style="fill:white;fill-opacity:1;"/>
</mask>
<g mask="url(#mask0_125_242)">
<path d="M40 16C40.8148 28.9023 51.0976 39.1852 64 40C51.0976 40.8148 40.8148 51.0976 40 64C39.1852 51.0976 28.9023 40.8148 16 40C28.9023 39.1852 39.1852 28.9023 40 16Z" fill="url(#paint1_linear_125_242)" style=""/>
</g>
</g>
<defs>
<linearGradient id="paint0_linear_125_242" x1="40" y1="0" x2="40" y2="80" gradientUnits="userSpaceOnUse">
<stop stop-color="#B4FBED" style="stop-color:#B4FBED;stop-color:color(display-p3 0.7059 0.9843 0.9294);stop-opacity:1;"/>
<stop offset="1" stop-color="#B4FBED" stop-opacity="0" style="stop-color:none;stop-opacity:0;"/>
</linearGradient>
<linearGradient id="paint1_linear_125_242" x1="40" y1="16" x2="40" y2="64" gradientUnits="userSpaceOnUse">
<stop stop-color="#3F2FDD" style="stop-color:#3F2FDD;stop-color:color(display-p3 0.2456 0.1853 0.8685);stop-opacity:1;"/>
<stop offset="1" stop-color="#25BD91" style="stop-color:#25BD91;stop-color:color(display-p3 0.1451 0.7412 0.5686);stop-opacity:1;"/>
</linearGradient>
<clipPath id="clip0_125_242">
<rect width="48" height="48" fill="white" style="fill:white;fill-opacity:1;" transform="translate(16 16)"/>
</clipPath>
</defs>
</svg>
